<svg id="ejNx6uRKnD71" xmlns="http://www.w3.org/2000/svg" xmlns:xlink="http://www.w3.org/1999/xlink" viewBox="0 0 31 63" shape-rendering="geometricPrecision" text-rendering="geometricPrecision"><g id="ejNx6uRKnD72" transform="matrix(1 0 0 1 -146.113 -62.6821)" clip-rule="evenodd"><path id="ejNx6uRKnD73" d="M159.234,67.516C159.996,67.102,160.824,66.895,161.723,66.895C162.652,66.859,163.449,67.102,164.105,67.516C164.828,67.965,165.277,68.586,165.484,69.379C165.863,70.969,165.934,72.832,165.691,74.973C165.07,80.117,164.621,84.09,164.449,86.887C164.172,90.441,163.828,97.176,163.379,107.086C163.344,108.227,163,109.156,162.445,109.848C161.859,110.504,161.238,110.848,160.477,110.848C159.684,110.883,159.063,110.641,158.547,110.09C157.992,109.504,157.684,108.641,157.715,107.5C157.715,105.117,157.855,100.664,158.199,94.137C158.027,93.344,157.441,93.031,156.473,93.238C155.988,93.344,155.645,93.723,155.473,94.344C155.129,101.215,154.988,106.051,155.059,108.777C155.094,110.574,155.68,111.988,156.852,112.988C157.922,113.887,159.234,114.301,160.719,114.234C162.203,114.129,163.48,113.613,164.555,112.645C165.727,111.539,166.348,110.09,166.418,108.328C166.625,102.148,167.074,96.277,167.797,90.617L169.629,75.32C170.078,70.004,169.074,66.344,166.59,64.406C165.035,63.234,163.242,62.648,161.168,62.684C158.992,62.715,157.164,63.406,155.68,64.754C153.883,66.375,152.848,68.621,152.535,71.52C151.258,84.262,150.742,99.18,150.949,116.305C151.016,119.414,152.055,121.762,154.16,123.383C156.023,124.766,158.305,125.422,160.996,125.18C163.688,124.973,165.969,124.039,167.832,122.383C169.938,120.621,170.977,118.375,171.008,115.754L171.355,102.457C171.426,100.422,172.668,98.039,175.117,95.277C175.117,94.656,174.879,94.172,174.43,93.828C174.047,93.48,173.496,93.344,172.875,93.309C169.836,96.383,168.281,99.109,168.316,101.492L168.039,115.406C167.902,117.273,167.109,118.789,165.727,119.859C164.484,120.828,163,121.348,161.203,121.379C159.477,121.414,157.992,121,156.68,120.07C155.266,119.137,154.504,117.719,154.367,115.961C154.055,112.473,154.16,106.016,154.711,96.555L156.266,73.902C156.438,72.004,156.816,70.484,157.371,69.348C157.75,68.586,158.371,67.965,159.234,67.516" clip-rule="evenodd" fill="rgb(101,100,119)" fill-rule="evenodd" stroke="none" stroke-width="1" stroke-linejoin="round" stroke-miterlimit="2"/></g><g id="ejNx6uRKnD74" transform="matrix(1 0 0 1 -146.113 -62.6821)" clip-rule="evenodd"><path id="ejNx6uRKnD75" d="M157.855,67.652C159.063,66.41,160.547,65.859,162.379,65.996C164.242,66.168,165.621,66.996,166.555,68.484C167.039,69.242,167.352,70.176,167.418,71.383C167.453,72.246,167.418,73.594,167.246,75.355L165.969,88.164C165.52,93.379,165.176,99.766,164.934,107.293C164.898,108.5,164.484,109.469,163.688,110.191C163,110.848,162.137,111.23,161.102,111.297C160.133,111.402,159.234,111.23,158.547,110.711C157.75,110.191,157.371,109.469,157.336,108.469C157.301,103.977,157.406,99.457,157.648,94.863C158.027,94.586,158.098,94.277,157.891,93.93C157.648,93.586,157.301,93.445,156.816,93.445C156.266,93.445,155.922,93.723,155.781,94.207C155.609,94.723,155.887,94.965,156.543,95.035C156.266,101.871,156.129,106.5,156.195,108.984C156.195,110.191,156.715,111.125,157.684,111.746C158.547,112.336,159.648,112.539,160.926,112.438C162.203,112.336,163.273,111.887,164.207,111.16C165.211,110.332,165.762,109.297,165.863,107.984C166.383,99.316,166.762,93.379,167.039,90.27C167.418,86.336,168.004,81.777,168.766,76.527C169.422,72.246,169.039,69,167.523,66.758C166.105,64.684,164.141,63.684,161.688,63.719C159.164,63.754,157.164,64.855,155.68,67.031C154.953,68.066,154.438,70.07,154.02,72.938C152.711,82.949,152.156,97.555,152.297,116.719C152.297,119.137,153.227,120.965,155.094,122.242C156.75,123.418,158.82,123.969,161.273,123.867C163.688,123.727,165.727,123.039,167.453,121.691C169.387,120.242,170.355,118.344,170.422,115.992L170.77,102.148C170.77,99.801,172.148,97.383,174.844,94.93C174.98,94.723,174.945,94.484,174.703,94.207C174.359,93.895,174.152,93.723,174.016,93.758C171.078,96.969,169.594,99.766,169.594,102.043C169.594,110.883,169.492,115.613,169.281,116.27C168.695,118.309,167.559,119.859,165.863,120.898C164.379,121.793,162.688,122.242,160.824,122.176C158.992,122.105,157.406,121.59,156.059,120.656C154.676,119.621,153.918,118.309,153.813,116.719C153.539,112.816,153.605,106.258,154.02,97.039C154.438,88.164,155.023,80.223,155.715,73.281C156.023,70.727,156.715,68.828,157.855,67.652" clip-rule="evenodd" fill="rgb(111,125,171)" fill-rule="evenodd" stroke="none" stroke-width="1" stroke-linejoin="round" stroke-miterlimit="2"/></g><g id="ejNx6uRKnD76" transform="matrix(1 0 0 1 -146.113 -62.6821)" clip-rule="evenodd"><path id="ejNx6uRKnD77" d="M169.871,115.547C169.73,115.578,169.629,115.648,169.559,115.855L169.453,116.512C168.902,118.551,167.766,120.102,166.07,121.172C164.59,122.105,162.824,122.52,160.895,122.449C159.027,122.383,157.406,121.828,156.059,120.898C154.609,119.859,153.781,118.551,153.641,116.996C153.641,116.582,153.539,116.441,153.262,116.441C152.914,116.477,152.813,116.684,152.949,117.098C153.297,119.238,154.332,120.898,156.059,122.035C157.648,123.039,159.477,123.523,161.582,123.383C163.688,123.281,165.52,122.656,167.109,121.449C168.801,120.172,169.836,118.445,170.18,116.305C170.285,115.785,170.18,115.512,169.871,115.547" clip-rule="evenodd" fill="rgb(203,207,232)" fill-rule="evenodd" stroke="none" stroke-width="1" stroke-linejoin="round" stroke-miterlimit="2"/></g><g id="ejNx6uRKnD78" transform="matrix(1 0 0 1 -146.113 -62.6821)" clip-rule="evenodd"><path id="ejNx6uRKnD79" d="M157.578,94.965L157.059,95.105L156.785,100.664C156.609,104.219,156.508,106.809,156.543,108.434C156.578,109.641,157.023,110.574,157.922,111.23C158.754,111.852,159.754,112.094,160.926,112.023C162.102,111.953,163.137,111.539,164.035,110.848C165.004,110.02,165.555,108.984,165.691,107.637C165.727,107.258,165.691,107.086,165.52,107.086C165.313,107.086,165.277,107.293,165.277,107.637C165.105,108.883,164.555,109.848,163.688,110.605C162.895,111.262,161.965,111.645,160.926,111.676C159.891,111.715,159.027,111.438,158.336,110.848C157.578,110.16,157.199,109.227,157.199,107.984L157.578,94.965" clip-rule="evenodd" fill="rgb(203,207,232)" fill-rule="evenodd" stroke="none" stroke-width="1" stroke-linejoin="round" stroke-miterlimit="2"/></g><g id="ejNx6uRKnD710" transform="matrix(1 0 0 1 -146.113 -62.6821)" clip-rule="evenodd"><path id="ejNx6uRKnD711" d="M158.891,65.961C160.41,64.926,161.965,64.512,163.656,64.754C165.414,65.031,166.691,65.926,167.453,67.48C168.109,68.688,168.387,70.07,168.387,71.66C168.352,71.969,168.422,72.145,168.66,72.176C168.836,72.211,168.938,72.004,168.938,71.555C168.938,69.727,168.559,68.102,167.695,66.652C166.797,65.168,165.484,64.27,163.656,63.992C161.859,63.684,160.098,64.098,158.441,65.168C158.199,65.41,158.129,65.652,158.27,65.859C158.441,66.102,158.648,66.137,158.891,65.961" clip-rule="evenodd" fill="rgb(203,207,232)" fill-rule="evenodd" stroke="none" stroke-width="1" stroke-linejoin="round" stroke-miterlimit="2"/></g><g id="ejNx6uRKnD712" transform="matrix(1 0 0 1 -146.113 -62.6821)" clip-rule="evenodd"><path id="ejNx6uRKnD713" d="M147.148,84.469C146.91,86.16,147.324,87.645,148.289,88.992C149.289,90.34,150.637,91.098,152.297,91.34C153.988,91.582,155.473,91.203,156.816,90.199C158.164,89.199,158.926,87.887,159.164,86.195C159.406,84.539,159.027,83.055,158.027,81.707C157.023,80.395,155.68,79.566,154.02,79.359C152.363,79.082,150.879,79.496,149.531,80.465C148.188,81.5,147.391,82.813,147.148,84.469" clip-rule="evenodd" fill="rgb(101,100,119)" fill-rule="evenodd" stroke="none" stroke-width="1" stroke-linejoin="round" stroke-miterlimit="2"/></g><g id="ejNx6uRKnD714" transform="matrix(1 0 0 1 -146.113 -62.6821)" clip-rule="evenodd"><path id="ejNx6uRKnD715" d="M149.395,81.5C148.082,82.227,147.355,83.227,147.148,84.469C146.977,85.781,147.391,87.023,148.43,88.234C149.496,89.512,150.809,90.27,152.434,90.512C154.055,90.754,155.539,90.41,156.922,89.477C158.234,88.578,158.992,87.508,159.164,86.195C159.34,84.953,158.926,83.777,157.855,82.742C156.816,81.707,155.473,81.016,153.813,80.809C152.156,80.566,150.672,80.809,149.395,81.5" clip-rule="evenodd" fill="rgb(209,210,211)" fill-rule="evenodd" stroke="none" stroke-width="1" stroke-linejoin="round" stroke-miterlimit="2"/></g><g id="ejNx6uRKnD716" transform="matrix(1 0 0 1 -146.113 -62.6821)" clip-rule="evenodd"><path id="ejNx6uRKnD717" d="M153.641,81.844C152.09,81.605,150.707,81.777,149.496,82.293C148.289,82.813,147.598,83.535,147.461,84.539C147.324,85.574,147.738,86.539,148.738,87.543C149.773,88.613,151.051,89.27,152.57,89.477C154.09,89.684,155.473,89.441,156.785,88.715C157.992,88.027,158.684,87.195,158.855,86.16C158.992,85.16,158.547,84.262,157.508,83.434C156.508,82.605,155.23,82.051,153.641,81.844" clip-rule="evenodd" fill="rgb(254,254,254)" fill-rule="evenodd" stroke="none" stroke-width="1" stroke-linejoin="round" stroke-miterlimit="2"/></g><g id="ejNx6uRKnD718" transform="matrix(1 0 0 1 -146.113 -62.6821)" clip-rule="evenodd"><path id="ejNx6uRKnD719" d="M153.398,83.535C152.848,83.504,152.297,83.605,151.848,83.949C151.398,84.297,151.121,84.781,151.016,85.367C150.949,85.953,151.086,86.473,151.434,86.922C151.777,87.402,152.262,87.645,152.848,87.75C153.398,87.82,153.918,87.68,154.402,87.336C154.887,86.988,155.129,86.508,155.23,85.953C155.301,85.402,155.16,84.883,154.816,84.367C154.473,83.918,153.988,83.641,153.398,83.535" clip-rule="evenodd" fill="rgb(34,31,31)" fill-rule="evenodd" stroke="none" stroke-width="1" stroke-linejoin="round" stroke-miterlimit="2"/></g><g id="ejNx6uRKnD720" transform="matrix(1 0 0 1 -146.113 -62.6821)" clip-rule="evenodd"><path id="ejNx6uRKnD721" d="M168.004,78.668C166.313,78.426,164.828,78.84,163.516,79.809C162.203,80.809,161.41,82.156,161.168,83.848C160.926,85.473,161.309,86.988,162.309,88.336C163.309,89.684,164.621,90.441,166.313,90.684C167.973,90.926,169.453,90.547,170.801,89.547C172.148,88.543,172.941,87.195,173.148,85.574C173.391,83.883,173.047,82.398,172.012,81.016C171.008,79.703,169.664,78.91,168.004,78.668" clip-rule="evenodd" fill="rgb(101,100,119)" fill-rule="evenodd" stroke="none" stroke-width="1" stroke-linejoin="round" stroke-miterlimit="2"/></g><g id="ejNx6uRKnD722" transform="matrix(1 0 0 1 -146.113 -62.6821)" clip-rule="evenodd"><path id="ejNx6uRKnD723" d="M167.797,80.117C166.141,79.879,164.656,80.152,163.344,80.879C162.066,81.605,161.34,82.57,161.168,83.848C160.961,85.125,161.375,86.402,162.41,87.609C163.449,88.891,164.828,89.613,166.418,89.82C168.039,90.063,169.523,89.719,170.906,88.785C172.219,87.922,172.977,86.852,173.148,85.574C173.355,84.297,172.91,83.156,171.871,82.051C170.836,81.016,169.492,80.395,167.797,80.117" clip-rule="evenodd" fill="rgb(209,210,211)" fill-rule="evenodd" stroke="none" stroke-width="1" stroke-linejoin="round" stroke-miterlimit="2"/></g><g id="ejNx6uRKnD724" transform="matrix(1 0 0 1 -146.113 -62.6821)" clip-rule="evenodd"><path id="ejNx6uRKnD725" d="M161.551,83.883C161.41,84.883,161.824,85.887,162.793,86.852C163.828,87.887,165.07,88.543,166.555,88.75C168.074,88.957,169.453,88.715,170.734,87.992C171.906,87.336,172.598,86.508,172.734,85.473C172.875,84.539,172.461,83.641,171.457,82.813C170.457,81.984,169.18,81.465,167.66,81.258C166.07,81.016,164.727,81.156,163.551,81.707C162.344,82.191,161.688,82.949,161.551,83.883" clip-rule="evenodd" fill="rgb(254,254,254)" fill-rule="evenodd" stroke="none" stroke-width="1" stroke-linejoin="round" stroke-miterlimit="2"/></g><g id="ejNx6uRKnD726" transform="matrix(1 0 0 1 -146.113 -62.6821)" clip-rule="evenodd"><path id="ejNx6uRKnD727" d="M169.215,85.297C169.281,84.711,169.18,84.191,168.836,83.711C168.488,83.262,168.004,82.984,167.418,82.883C166.832,82.813,166.313,82.949,165.863,83.297C165.383,83.641,165.07,84.125,165.004,84.711C164.934,85.266,165.07,85.816,165.414,86.266C165.762,86.746,166.246,87.023,166.797,87.129C167.383,87.195,167.902,87.059,168.387,86.715C168.867,86.367,169.145,85.887,169.215,85.297" clip-rule="evenodd" fill="rgb(34,31,31)" fill-rule="evenodd" stroke="none" stroke-width="1" stroke-linejoin="round" stroke-miterlimit="2"/></g><g id="ejNx6uRKnD728_to" transform="translate(15.175995,15.918448)"><g id="ejNx6uRKnD728" transform="translate(-15.175995,-13.120403)" clip-rule="evenodd"><g id="ejNx6uRKnD729" transform="matrix(1 0 0 1 -146.113 -62.6821)" clip-rule="evenodd"><path id="ejNx6uRKnD730" d="M151.535,71.66C149.223,72.488,147.426,74.523,146.113,77.84C148.844,75.078,151.051,73.836,152.848,74.109L151.535,71.66" clip-rule="evenodd" fill="rgb(34,31,31)" fill-rule="evenodd" stroke="none" stroke-width="1" stroke-linejoin="round" stroke-miterlimit="2"/></g><g id="ejNx6uRKnD731" transform="matrix(1 0 0 1 -146.113 -62.6821)" clip-rule="evenodd"><path id="ejNx6uRKnD732" d="M168.387,72.695L167.453,75.355C168.73,75.387,170.18,75.836,171.84,76.664C173.461,77.496,174.98,78.602,176.465,79.945C174.254,76.426,171.563,74.008,168.387,72.695" clip-rule="evenodd" fill="rgb(34,31,31)" fill-rule="evenodd" stroke="none" stroke-width="1" stroke-linejoin="round" stroke-miterlimit="2"/></g></g></g></svg>